<svg width="17.000000" height="9.000000" viewBox="0 0 17 9" fill="none" xmlns="http://www.w3.org/2000/svg" xmlns:xlink="http://www.w3.org/1999/xlink">
	<desc>
			Created with Pixso.
	</desc>
	<defs/>
	<path id="Vector" d="M15.49 -0.02L8 7.29L0.5 -0.02C0.36 -0.15 0.18 -0.22 0 -0.22C-0.19 -0.22 -0.37 -0.15 -0.5 -0.02C-0.57 0.05 -0.62 0.12 -0.66 0.21C-0.69 0.29 -0.71 0.38 -0.71 0.47C-0.71 0.56 -0.69 0.65 -0.66 0.74C-0.62 0.82 -0.57 0.9 -0.5 0.96L7.47 8.73C7.61 8.87 7.8 8.95 8 8.95C8.19 8.95 8.38 8.87 8.52 8.73L16.49 0.96C16.56 0.9 16.61 0.82 16.65 0.74C16.68 0.65 16.7 0.56 16.7 0.47C16.7 0.38 16.68 0.29 16.65 0.21C16.61 0.12 16.56 0.05 16.49 -0.02C16.36 -0.15 16.18 -0.22 15.99 -0.22C15.81 -0.22 15.63 -0.15 15.49 -0.02L15.49 -0.02Z" fill="#151317" fill-opacity="1.000000" fill-rule="nonzero"/>
</svg>
