<svg width="21.000000" height="15.000000" viewBox="0 0 21 15" fill="none" xmlns="http://www.w3.org/2000/svg" xmlns:xlink="http://www.w3.org/1999/xlink">
	<desc>
			Created with Pixso.
	</desc>
	<defs/>
	<path id="Vector" d="M19 -0.5L1 -0.5C0.6 -0.5 0.22 -0.35 -0.07 -0.07C-0.35 0.22 -0.5 0.6 -0.5 1L-0.5 13C-0.5 13.39 -0.35 13.77 -0.07 14.06C0.22 14.34 0.6 14.5 1 14.5L19 14.5C19.39 14.5 19.77 14.34 20.06 14.06C20.34 13.77 20.5 13.39 20.5 13L20.5 1C20.5 0.6 20.34 0.22 20.06 -0.07C19.77 -0.35 19.39 -0.5 19 -0.5ZM17.35 1L10 6.08L2.65 1L17.35 1ZM1 13L1 1.68L9.57 7.61C9.69 7.7 9.84 7.74 10 7.74C10.15 7.74 10.3 7.7 10.42 7.61L19 1.68L19 13L1 13Z" fill="#512689" fill-opacity="1.000000" fill-rule="nonzero"/>
</svg>
