<svg width="22.000000" height="23.000000" viewBox="0 0 22 23" fill="none" xmlns="http://www.w3.org/2000/svg" xmlns:xlink="http://www.w3.org/1999/xlink">
	<desc>
			Created with Pixso.
	</desc>
	<defs/>
	<path id="Vector" d="M6.17 1.33C5.78 0.88 5.06 0.88 4.61 1.34L1.83 4.12C1 4.95 0.76 6.18 1.24 7.17C4.1 13.1 8.88 17.88 14.8 20.75C15.79 21.23 17.02 20.99 17.85 20.16L20.65 17.35C21.11 16.89 21.11 16.18 20.66 15.79L16.74 12.42C16.33 12.07 15.69 12.12 15.28 12.53L13.91 13.89C13.84 13.97 13.75 14.01 13.65 14.03C13.55 14.05 13.45 14.03 13.36 13.98C11.13 12.7 9.28 10.85 8 8.61C7.95 8.52 7.93 8.42 7.95 8.32C7.97 8.22 8.01 8.13 8.09 8.06L9.45 6.7C9.86 6.29 9.9 5.64 9.55 5.23L9.55 5.24L6.17 1.33Z" stroke="#512689" stroke-opacity="1.000000" stroke-width="2.000000" stroke-linejoin="round"/>
</svg>
